<svg width="300" height="271" viewBox="0 0 300 271" fill="none" xmlns="http://www.w3.org/2000/svg">
<path d="M322.764 397.404C257.431 406.694 187.882 366.963 148.925 298.093C147.128 294.919 145.317 291.36 145.493 287.512C145.957 277.064 158.749 276.657 163.478 268.237C170.31 256.073 156.331 241.426 144.725 237.049C128.792 231.034 111.122 226.684 99.983 210.873C85.7408 190.629 88.0658 159.937 94.5084 134.875C100.951 109.814 110.719 84.8914 108.501 58.3428C106.754 37.6586 100.446 9.66758 115.448 1.84836C124.563 -2.89664 134.901 5.1899 142.279 14.0283C166.076 42.5373 181.287 83.3599 210.086 102.964C230.502 116.859 254.768 117.772 275.828 129.974C299.379 143.619 316.943 170.279 329.976 198.61C341.277 223.115 349.989 250.343 350.355 278.306C350.721 306.269 341.666 335.068 323.39 350.116" fill="#194429"/>
<path d="M160.435 571.476C195.796 539.676 226.193 500.596 250.219 456.048C263.79 430.858 275.23 404.109 286.128 377.126C293.845 358.046 301.376 338.643 305.419 317.998C309.161 298.934 309.856 279.213 310.088 259.621C310.486 226.484 309.625 193.376 307.503 160.299C304.988 121.002 300.422 80.8535 284.924 46.1292C279.649 34.3002 272.15 22.4043 261.243 19.4303C245.592 15.1531 231.206 30.9252 222.226 46.9145C209.419 69.7484 200.865 95.5285 192.769 121.264C165.289 208.651 141.645 300.761 147.953 393.823" fill="#198C36"/>
<path d="M231.957 383.158C238.95 360.992 245.015 338.444 250.15 315.514C255.285 292.583 259.453 269.378 262.655 245.898C265.885 222.507 268.151 198.974 269.454 175.297C270.757 151.62 271.085 127.934 270.436 104.239C269.783 80.4971 268.148 56.7832 265.531 33.2309C265.223 30.3015 264.883 27.3702 264.512 24.437C264.049 20.7224 259.334 22.0868 259.784 25.7792C262.615 49.0711 264.47 72.5194 265.342 96.0353C266.206 119.515 266.107 143.006 265.045 166.509C263.98 190.055 261.959 213.515 258.982 236.887C256.024 260.07 252.115 283.038 247.255 305.79C242.395 328.542 236.607 350.988 229.891 373.128C229.048 375.909 228.188 378.693 227.311 381.481C226.195 384.973 230.85 386.65 231.957 383.158Z" fill="#153A23"/>
<path d="M270.27 105.453C273.674 92.8553 274.137 89.9259 279.301 78.2638C279.908 76.8771 286.93 61.9292 285.758 61.066C284.706 60.2807 278.63 69.6872 278.014 71.0907C272.66 83.1815 269.149 90.7 265.619 103.76C264.656 107.307 269.302 109.001 270.27 105.453Z" fill="#153A23"/>
<path d="M269.561 177.502C273.132 160.544 274.656 154.111 280.214 138.016C280.714 136.563 288.319 119.688 287.161 119.259C285.804 118.763 281.631 125.853 280.899 127.167C268.329 149.673 268.468 158.845 264.892 175.804C264.137 179.435 268.778 181.145 269.561 177.502Z" fill="#153A23"/>
<path d="M264.897 228.427C270.096 208.447 276.125 188.793 282.96 169.538C284.878 164.136 284.813 164.097 286.865 158.762C287.416 157.336 290.672 146.821 289.468 145.925C288.453 145.173 282.298 156.985 281.742 158.422C274.332 177.742 270.723 189.42 264.948 209.536C263.314 215.239 261.747 220.968 260.247 226.723C259.311 230.315 263.966 232.014 264.897 228.427Z" fill="#153A23"/>
<path d="M257.736 273.243C267.597 258.841 279.635 237.333 286.73 220.748C297.981 194.416 286.045 209.609 282.599 217.685C275.693 233.835 266.416 248.343 256.829 262.35C255.99 263.564 255.763 265.235 256.741 266.471C257.56 267.501 256.24 271.094 257.079 269.868L257.741 273.243H257.736Z" fill="#153A23"/>
<path d="M211.707 295.977C154.78 310.958 92.8457 295.849 45.2186 255.372C25.9834 239.026 8.16556 216.76 4.37689 188.758C3.95078 185.583 3.80256 181.986 5.51164 179.513C6.94744 177.463 9.26326 176.739 11.4262 176.238C62.1704 164.353 112.215 200.915 149.486 244.127C140.957 219.6 136.713 193.225 137.018 166.642C137.11 159.051 139.38 149.194 145.674 148.96C149.569 148.815 152.622 152.758 155.081 156.434C178.798 192.116 197.019 232.608 208.887 276" fill="#1F7A36"/>
<path d="M5.17354 180.259C30.2353 172.546 56.9042 177.792 80.4468 189.766C104.893 202.191 126.096 221.895 145.452 243.453C156.637 255.912 167.29 269.072 177.924 282.193C180.268 285.095 184.168 281.519 183.172 277.972C174.784 247.981 166.1 218.097 157.985 187.995C151.658 164.537 148.791 169.171 153.923 189.849C161.435 220.18 168.601 250.554 176.998 280.522L182.255 276.301C163.07 252.581 143.729 228.717 121.427 209.186C99.6217 190.106 74.8147 175.269 47.9374 170.435C32.9726 167.745 17.7438 168.285 3.05688 172.808C1.34781 173.331 0.490961 175.91 1.0236 177.82C1.63497 179.953 3.46447 180.783 5.17354 180.259Z" fill="#163A24"/>
<path d="M217.27 287.623C193.513 287.572 169.852 283.999 146.823 276.986C123.759 269.989 101.488 259.649 80.4977 246.193C68.7519 238.669 63.5691 238.853 50.4848 227.197C49.0953 225.938 35.432 213.274 34.1768 214.994C33.0976 216.465 40.9297 225.387 42.3701 226.645C62.0353 243.911 83.3934 258.199 105.962 269.189C128.611 280.222 152.295 287.89 176.488 292.023C190.138 294.325 203.904 295.482 217.687 295.487C221.855 295.487 221.461 287.623 217.27 287.623Z" fill="#194429"/>
<path d="M69.6736 221.294C87.8574 235.601 101.766 256.129 118.144 273.088C121.335 276.39 132.58 276.702 129.38 273.394C112.535 255.99 96.4352 235.167 77.728 220.447C76.2505 219.283 63.1198 211.425 62.3834 213.174C61.5034 215.212 68.1915 220.13 69.6736 221.294Z" fill="#194429"/>
<path d="M118.222 241.766C131.941 257.627 137.133 270.542 151.315 284.02C154.609 287.144 169.527 288.13 166.215 284.983C152.024 271.511 136.24 252.554 122.836 237.957C110.256 224.256 102.498 222.881 118.222 241.766Z" fill="#194429"/>
</svg>
